<svg xmlns="http://www.w3.org/2000/svg" xmlns:xlink="http://www.w3.org/1999/xlink" version="1.1" viewBox="0 0 4640 2520" style="background: #ffffff"><defs><style>@import url(https://fonts.googleapis.com/css?family=Open+Sans:400,700);</style></defs><defs joint-selector="defs"></defs><g joint-selector="layers" transform="matrix(1,0,0,1,0,0)" ><g ></g><g ><!--z-index:1--><!--z-index:2--><!--z-index:3--><!--z-index:4--><!--z-index:5--><!--z-index:6--><!--z-index:7--><!--z-index:8--><!--z-index:9--><!--z-index:10--><!--z-index:11--><!--z-index:12--><!--z-index:13--><!--z-index:14--><!--z-index:15--><!--z-index:16--><!--z-index:17--><!--z-index:18--><!--z-index:19--><!--z-index:20--><!--z-index:21--><!--z-index:22--><!--z-index:23--><!--z-index:24--><!--z-index:25--><!--z-index:26--><!--z-index:27--><!--z-index:28--><!--z-index:29--><!--z-index:30--><!--z-index:31--><!--z-index:32--><g   id="j_2"  transform="translate(20,2478)"><g id="v-5"><text  id="v-6" font-size="22px" xml:space="preserve" y="0.8em" font-weight="normal" text-anchor="start" fill="#444444" pointer-events="none" display="block" font-family="Open Sans"><tspan dy="0"  display="block">Wednesday, 17 September 2025 at 21:00 Peru Standard Time</tspan></text></g></g><!--z-index:33--><g   id="j_1"  transform="translate(20,2432)"><g id="v-3"><text  id="v-4" font-size="36px" xml:space="preserve" y="0.8em" font-weight="normal" text-anchor="start" fill="#444444" pointer-events="none" display="block" font-family="Open Sans"><tspan dy="0"  display="block">[Component] SafeCar Platform - SafeCar backend platform</tspan></text></g></g><!--z-index:34--><g   id="j_3"  transform="translate(3969,1981)" style=""><g  id="v-10" style="opacity: 1;"><rect  id="v-11" rx="1" ry="1" stroke-width="2" pointer-events="visiblePainted" fill="#808080" stroke="#737373" width="450" height="300" style="fill: rgb(128, 128, 128); stroke: rgb(115, 115, 115);"></rect><text  id="v-12" font-size="34" xml:space="preserve" y="86.6" font-weight="bold" text-anchor="middle" pointer-events="visible" font-family="Open Sans" fill="#ffffff" dominant-baseline="hanging" transform="matrix(1,0,0,1,225,0)" style="fill: rgb(255, 255, 255);"><tspan dy="0" >OpenAI Service</tspan></text><text  id="v-13" font-size="17" xml:space="preserve" y="128.6" text-anchor="middle" font-family="Open Sans" fill="#ffffff" dominant-baseline="hanging" transform="matrix(1,0,0,1,225,0)" style="display: block; fill: rgb(255, 255, 255);"><tspan dy="0" >[Software System]</tspan></text><text  id="v-14" font-size="24" xml:space="preserve" y="160.6" text-anchor="middle" font-family="Open Sans" fill="#ffffff" dominant-baseline="hanging" transform="matrix(1,0,0,1,225,0)" style="display: block; fill: rgb(255, 255, 255);"><tspan dy="0" >External service for the use of</tspan><tspan dy="1.2em" x="0" >Artificial Intelligence.</tspan></text><g  id="v-15" color="#ffffff" transform="matrix(1,0,0,1,222.5,268)" display="none" style="fill: rgb(255, 255, 255);"><g ></g><g ></g><g ></g><g ></g></g><image  id="v-16"></image></g></g><!--z-index:35--><g   id="j_4"  transform="translate(2469,1981)" style=""><g  id="v-23" style="opacity: 1;"><path  d="M 0,30 a 225,30 0,0,0 450 0 a 225,30 0,0,0 -450 0 l 0,240 a 225,30 0,0,0 450 0 l 0,-240" id="v-24" stroke-width="2" pointer-events="visiblePainted" fill="#e6406a" stroke="#cf3a5f" style="fill: rgb(230, 64, 106); stroke: rgb(207, 58, 95);"></path><rect  id="v-25" stroke-width="0" pointer-events="visiblePainted" fill="none" stroke="none" width="450" height="270" x="0" y="30"></rect><text  id="v-26" font-size="34" xml:space="preserve" y="101.6" font-weight="bold" text-anchor="middle" pointer-events="visible" font-family="Open Sans" fill="#ffffff" dominant-baseline="hanging" transform="matrix(1,0,0,1,225,0)" style="fill: rgb(255, 255, 255);"><tspan dy="0" >SafeCar database</tspan></text><text  id="v-27" font-size="17" xml:space="preserve" y="143.6" text-anchor="middle" font-family="Open Sans" fill="#ffffff" dominant-baseline="hanging" transform="matrix(1,0,0,1,225,0)" style="display: block; fill: rgb(255, 255, 255);"><tspan dy="0" >[Container: MySQL]</tspan></text><text  id="v-28" font-size="24" xml:space="preserve" y="175.6" text-anchor="middle" font-family="Open Sans" fill="#ffffff" dominant-baseline="hanging" transform="matrix(1,0,0,1,225,0)" style="display: block; fill: rgb(255, 255, 255);"><tspan dy="0" >Data persistence of our SafeCar</tspan><tspan dy="1.2em" x="0" >platform</tspan></text><g  id="v-29" font-weight="normal" text-anchor="middle" color="#ffffff" transform="matrix(1,0,0,1,222.5,268)" display="none" style="fill: rgb(255, 255, 255);"><g ></g><g ></g><g ></g><g ></g></g><image  id="v-30"></image></g></g><!--z-index:36--><g   id="j_6"  transform="translate(199,161)" style=""><g id="v-44"><rect  id="v-45" width="4240" height="1611" rx="0" ry="0" stroke-width="2" stroke-dasharray="20,20" pointer-events="none" stroke="#444444" fill="#ffffff"></rect><text  id="v-46" font-size="24px" xml:space="preserve" y="1572" font-weight="normal" text-anchor="start" pointer-events="visible" font-family="Open Sans" fill="#444444" transform="matrix(1,0,0,1,15,0)"><tspan dy="0" >SafeCar backend platform</tspan></text><text  id="v-47" font-size="17px" xml:space="preserve" y="1596" font-weight="normal" text-anchor="start" pointer-events="visible" font-family="Open Sans" fill="#444444" transform="matrix(1,0,0,1,15,0)"><tspan dy="0" >[Container]</tspan></text><image  id="v-48" pointer-events="visible"></image></g></g><!--z-index:37--><g   id="j_5"  transform="translate(1906,181)" style=""><g  id="v-37" style="opacity: 1;"><rect  id="v-38" rx="1" ry="1" stroke-width="2" pointer-events="visiblePainted" fill="#ffcc00" stroke="#e6b800" width="450" height="300" style="fill: rgb(255, 204, 0); stroke: rgb(230, 184, 0);"></rect><text  id="v-39" font-size="34" xml:space="preserve" y="57.80000000000001" font-weight="bold" text-anchor="middle" pointer-events="visible" font-family="Open Sans" fill="#000000" dominant-baseline="hanging" transform="matrix(1,0,0,1,225,0)" style="fill: rgb(0, 0, 0);"><tspan dy="0" >Analytics Facade</tspan></text><text  id="v-40" font-size="17" xml:space="preserve" y="99.80000000000001" text-anchor="middle" font-family="Open Sans" fill="#000000" dominant-baseline="hanging" transform="matrix(1,0,0,1,225,0)" style="display: block; fill: rgb(0, 0, 0);"><tspan dy="0" >[Component: Java, Spring Boot]</tspan></text><text  id="v-41" font-size="24" xml:space="preserve" y="131.8" text-anchor="middle" font-family="Open Sans" fill="#000000" dominant-baseline="hanging" transform="matrix(1,0,0,1,225,0)" style="display: block; fill: rgb(0, 0, 0);"><tspan dy="0" >Orchestrates analytics and</tspan><tspan dy="1.2em" x="0" >recommendations operations,</tspan><tspan dy="1.2em" x="0" >exposing a simplified API to other</tspan><tspan dy="1.2em" x="0" >backend modules.</tspan></text><g  id="v-42" color="#000000" transform="matrix(1,0,0,1,222.5,268)" display="none" style="fill: rgb(0, 0, 0);"><g ></g><g ></g><g ></g><g ></g></g><image  id="v-43"></image></g></g><!--z-index:38--><g   id="j_7"  transform="translate(1156,781)" style=""><g  id="v-55" style="opacity: 1;"><rect  id="v-56" rx="1" ry="1" stroke-width="2" pointer-events="visiblePainted" fill="#ffffff" stroke="#444444" width="450" height="300" style="fill: rgb(255, 255, 255); stroke: rgb(68, 68, 68);"></rect><text  id="v-57" font-size="34" xml:space="preserve" y="66.2" font-weight="bold" text-anchor="middle" pointer-events="visible" font-family="Open Sans" fill="#444444" dominant-baseline="hanging" transform="matrix(1,0,0,1,225,0)" style="fill: rgb(68, 68, 68);"><tspan dy="0" >Driver Profile</tspan><tspan dy="1.2em" x="0" >Component</tspan></text><text  id="v-58" font-size="17" xml:space="preserve" y="149" text-anchor="middle" font-family="Open Sans" fill="#444444" dominant-baseline="hanging" transform="matrix(1,0,0,1,225,0)" style="display: block; fill: rgb(68, 68, 68);"><tspan dy="0" >[Component: Java, Spring Boot]</tspan></text><text  id="v-59" font-size="24" xml:space="preserve" y="181" text-anchor="middle" font-family="Open Sans" fill="#444444" dominant-baseline="hanging" transform="matrix(1,0,0,1,225,0)" style="display: block; fill: rgb(68, 68, 68);"><tspan dy="0" >Handles creation and risk</tspan><tspan dy="1.2em" x="0" >recalculation of driver profiles.</tspan></text><g  id="v-60" color="#444444" transform="matrix(1,0,0,1,222.5,268)" display="none" style="fill: rgb(68, 68, 68);"><g ></g><g ></g><g ></g><g ></g></g><image  id="v-61"></image></g></g><!--z-index:39--><g   id="j_8"  transform="translate(1906,781)" style=""><g  id="v-68" style="opacity: 1;"><rect  id="v-69" rx="1" ry="1" stroke-width="2" pointer-events="visiblePainted" fill="#ffffff" stroke="#444444" width="450" height="300" style="fill: rgb(255, 255, 255); stroke: rgb(68, 68, 68);"></rect><text  id="v-70" font-size="34" xml:space="preserve" y="72.2" font-weight="bold" text-anchor="middle" pointer-events="visible" font-family="Open Sans" fill="#444444" dominant-baseline="hanging" transform="matrix(1,0,0,1,225,0)" style="fill: rgb(68, 68, 68);"><tspan dy="0" >Prediction Component</tspan></text><text  id="v-71" font-size="17" xml:space="preserve" y="114.2" text-anchor="middle" font-family="Open Sans" fill="#444444" dominant-baseline="hanging" transform="matrix(1,0,0,1,225,0)" style="display: block; fill: rgb(68, 68, 68);"><tspan dy="0" >[Component: Java, Spring Boot]</tspan></text><text  id="v-72" font-size="24" xml:space="preserve" y="146.2" text-anchor="middle" font-family="Open Sans" fill="#444444" dominant-baseline="hanging" transform="matrix(1,0,0,1,225,0)" style="display: block; fill: rgb(68, 68, 68);"><tspan dy="0" >Predicts future mechanical failures</tspan><tspan dy="1.2em" x="0" >and manages prediction updates</tspan><tspan dy="1.2em" x="0" >and discards.</tspan></text><g  id="v-73" color="#444444" transform="matrix(1,0,0,1,222.5,268)" display="none" style="fill: rgb(68, 68, 68);"><g ></g><g ></g><g ></g><g ></g></g><image  id="v-74"></image></g></g><!--z-index:40--><g   id="j_9"  transform="translate(3031,781)" style=""><g  id="v-81" style="opacity: 1;"><rect  id="v-82" rx="1" ry="1" stroke-width="2" pointer-events="visiblePainted" fill="#ffffff" stroke="#444444" width="450" height="300" style="fill: rgb(255, 255, 255); stroke: rgb(68, 68, 68);"></rect><text  id="v-83" font-size="34" xml:space="preserve" y="51.80000000000001" font-weight="bold" text-anchor="middle" pointer-events="visible" font-family="Open Sans" fill="#444444" dominant-baseline="hanging" transform="matrix(1,0,0,1,225,0)" style="fill: rgb(68, 68, 68);"><tspan dy="0" >Recommendation</tspan><tspan dy="1.2em" x="0" >Component</tspan></text><text  id="v-84" font-size="17" xml:space="preserve" y="134.60000000000002" text-anchor="middle" font-family="Open Sans" fill="#444444" dominant-baseline="hanging" transform="matrix(1,0,0,1,225,0)" style="display: block; fill: rgb(68, 68, 68);"><tspan dy="0" >[Component: Java, Spring Boot]</tspan></text><text  id="v-85" font-size="24" xml:space="preserve" y="166.60000000000002" text-anchor="middle" font-family="Open Sans" fill="#444444" dominant-baseline="hanging" transform="matrix(1,0,0,1,225,0)" style="display: block; fill: rgb(68, 68, 68);"><tspan dy="0" >Generates maintenance</tspan><tspan dy="1.2em" x="0" >recommendations using domain</tspan><tspan dy="1.2em" x="0" >rules and AI.</tspan></text><g  id="v-86" color="#444444" transform="matrix(1,0,0,1,222.5,268)" display="none" style="fill: rgb(68, 68, 68);"><g ></g><g ></g><g ></g><g ></g></g><image  id="v-87"></image></g></g><!--z-index:41--><g   id="j_10"  transform="translate(219,1381)" style=""><g  id="v-94" style="opacity: 1;"><rect  id="v-95" rx="10" ry="10" stroke-width="2" pointer-events="visiblePainted" fill="#438dd5" stroke="#3c7fc0" x="10" y="0" width="150" height="75" style="fill: rgb(67, 141, 213); stroke: rgb(60, 127, 192);"></rect><rect  id="v-96" rx="5" ry="5" stroke-width="2" pointer-events="visiblePainted" fill="#438dd5" stroke="#3c7fc0" x="0" y="37.5" width="450" height="262.5" style="fill: rgb(67, 141, 213); stroke: rgb(60, 127, 192);"></rect><text  id="v-97" font-size="34" xml:space="preserve" y="105.35" font-weight="bold" text-anchor="middle" pointer-events="visible" font-family="Open Sans" fill="#ffffff" dominant-baseline="hanging" transform="matrix(1,0,0,1,225,0)" style="fill: rgb(255, 255, 255);"><tspan dy="0" >DriverProfile Repository</tspan></text><text  id="v-98" font-size="17" xml:space="preserve" y="147.35" text-anchor="middle" font-family="Open Sans" fill="#ffffff" dominant-baseline="hanging" transform="matrix(1,0,0,1,225,0)" style="display: block; fill: rgb(255, 255, 255);"><tspan dy="0" >[Component: Spring Data JPA]</tspan></text><text  id="v-99" font-size="24" xml:space="preserve" y="179.35" text-anchor="middle" font-family="Open Sans" fill="#ffffff" dominant-baseline="hanging" transform="matrix(1,0,0,1,225,0)" style="display: block; fill: rgb(255, 255, 255);"><tspan dy="0" >Infra adapter for</tspan><tspan dy="1.2em" x="0" >DriverProfileRepository (JPA).</tspan></text><g  id="v-100" font-weight="normal" text-anchor="middle" color="#ffffff" transform="matrix(1,0,0,1,222.5,268)" display="none" style="fill: rgb(255, 255, 255);"><g ></g><g ></g><g ></g><g ></g></g><image  id="v-101"></image></g></g><!--z-index:42--><g   id="j_11"  transform="translate(2469,1381)" style=""><g  id="v-108" style="opacity: 1;"><rect  id="v-109" rx="10" ry="10" stroke-width="2" pointer-events="visiblePainted" fill="#438dd5" stroke="#3c7fc0" x="10" y="0" width="150" height="75" style="fill: rgb(67, 141, 213); stroke: rgb(60, 127, 192);"></rect><rect  id="v-110" rx="5" ry="5" stroke-width="2" pointer-events="visiblePainted" fill="#438dd5" stroke="#3c7fc0" x="0" y="37.5" width="450" height="262.5" style="fill: rgb(67, 141, 213); stroke: rgb(60, 127, 192);"></rect><text  id="v-111" font-size="34" xml:space="preserve" y="105.35" font-weight="bold" text-anchor="middle" pointer-events="visible" font-family="Open Sans" fill="#ffffff" dominant-baseline="hanging" transform="matrix(1,0,0,1,225,0)" style="fill: rgb(255, 255, 255);"><tspan dy="0" >Prediction Repository</tspan></text><text  id="v-112" font-size="17" xml:space="preserve" y="147.35" text-anchor="middle" font-family="Open Sans" fill="#ffffff" dominant-baseline="hanging" transform="matrix(1,0,0,1,225,0)" style="display: block; fill: rgb(255, 255, 255);"><tspan dy="0" >[Component: Spring Data JPA]</tspan></text><text  id="v-113" font-size="24" xml:space="preserve" y="179.35" text-anchor="middle" font-family="Open Sans" fill="#ffffff" dominant-baseline="hanging" transform="matrix(1,0,0,1,225,0)" style="display: block; fill: rgb(255, 255, 255);"><tspan dy="0" >Infra adapter for</tspan><tspan dy="1.2em" x="0" >PredictionRepository (JPA).</tspan></text><g  id="v-114" font-weight="normal" text-anchor="middle" color="#ffffff" transform="matrix(1,0,0,1,222.5,268)" display="none" style="fill: rgb(255, 255, 255);"><g ></g><g ></g><g ></g><g ></g></g><image  id="v-115"></image></g></g><!--z-index:43--><g   id="j_12"  transform="translate(3219,1381)" style=""><g  id="v-122" style="opacity: 1;"><rect  id="v-123" rx="10" ry="10" stroke-width="2" pointer-events="visiblePainted" fill="#438dd5" stroke="#3c7fc0" x="10" y="0" width="150" height="75" style="fill: rgb(67, 141, 213); stroke: rgb(60, 127, 192);"></rect><rect  id="v-124" rx="5" ry="5" stroke-width="2" pointer-events="visiblePainted" fill="#438dd5" stroke="#3c7fc0" x="0" y="37.5" width="450" height="262.5" style="fill: rgb(67, 141, 213); stroke: rgb(60, 127, 192);"></rect><text  id="v-125" font-size="34" xml:space="preserve" y="84.95" font-weight="bold" text-anchor="middle" pointer-events="visible" font-family="Open Sans" fill="#ffffff" dominant-baseline="hanging" transform="matrix(1,0,0,1,225,0)" style="fill: rgb(255, 255, 255);"><tspan dy="0" >Recommendation</tspan><tspan dy="1.2em" x="0" >Repository</tspan></text><text  id="v-126" font-size="17" xml:space="preserve" y="167.75" text-anchor="middle" font-family="Open Sans" fill="#ffffff" dominant-baseline="hanging" transform="matrix(1,0,0,1,225,0)" style="display: block; fill: rgb(255, 255, 255);"><tspan dy="0" >[Component: Spring Data JPA]</tspan></text><text  id="v-127" font-size="24" xml:space="preserve" y="199.75" text-anchor="middle" font-family="Open Sans" fill="#ffffff" dominant-baseline="hanging" transform="matrix(1,0,0,1,225,0)" style="display: block; fill: rgb(255, 255, 255);"><tspan dy="0" >Infra adapter for</tspan><tspan dy="1.2em" x="0" >RecommendationRepository (JPA).</tspan></text><g  id="v-128" font-weight="normal" text-anchor="middle" color="#ffffff" transform="matrix(1,0,0,1,222.5,268)" display="none" style="fill: rgb(255, 255, 255);"><g ></g><g ></g><g ></g><g ></g></g><image  id="v-129"></image></g></g><!--z-index:44--><g   id="j_13"  transform="translate(3969,1381)" style=""><g  id="v-133" style="opacity: 1;"><rect  id="v-134" rx="1" ry="1" stroke-width="2" pointer-events="visiblePainted" fill="#ffffff" stroke="#444444" width="450" height="300" style="fill: rgb(255, 255, 255); stroke: rgb(68, 68, 68);"></rect><text  id="v-135" font-size="34" xml:space="preserve" y="86.6" font-weight="bold" text-anchor="middle" pointer-events="visible" font-family="Open Sans" fill="#444444" dominant-baseline="hanging" transform="matrix(1,0,0,1,225,0)" style="fill: rgb(68, 68, 68);"><tspan dy="0" >OpenAI Client</tspan></text><text  id="v-136" font-size="17" xml:space="preserve" y="128.6" text-anchor="middle" font-family="Open Sans" fill="#444444" dominant-baseline="hanging" transform="matrix(1,0,0,1,225,0)" style="display: block; fill: rgb(68, 68, 68);"><tspan dy="0" >[Component: Java HTTP Client]</tspan></text><text  id="v-137" font-size="24" xml:space="preserve" y="160.6" text-anchor="middle" font-family="Open Sans" fill="#444444" dominant-baseline="hanging" transform="matrix(1,0,0,1,225,0)" style="display: block; fill: rgb(68, 68, 68);"><tspan dy="0" >Encapsulates calls to the external</tspan><tspan dy="1.2em" x="0" >OpenAI Service.</tspan></text><g  id="v-138" color="#444444" transform="matrix(1,0,0,1,222.5,268)" display="none" style="fill: rgb(68, 68, 68);"><g ></g><g ></g><g ></g><g ></g></g><image  id="v-139"></image></g></g><!--z-index:45--><g   id="j_14"  transform="translate(969,1381)" style=""><g  id="v-146" style="opacity: 1;"><rect  id="v-147" rx="1" ry="1" stroke-width="2" pointer-events="visiblePainted" fill="#ffcc00" stroke="#e6b800" width="450" height="300" style="fill: rgb(255, 204, 0); stroke: rgb(230, 184, 0);"></rect><text  id="v-148" font-size="34" xml:space="preserve" y="37.400000000000006" font-weight="bold" text-anchor="middle" pointer-events="visible" font-family="Open Sans" fill="#000000" dominant-baseline="hanging" transform="matrix(1,0,0,1,225,0)" style="fill: rgb(0, 0, 0);"><tspan dy="0" >External Driver Context</tspan><tspan dy="1.2em" x="0" >Service (ACL)</tspan></text><text  id="v-149" font-size="17" xml:space="preserve" y="120.2" text-anchor="middle" font-family="Open Sans" fill="#000000" dominant-baseline="hanging" transform="matrix(1,0,0,1,225,0)" style="display: block; fill: rgb(0, 0, 0);"><tspan dy="0" >[Component: Java, Spring Boot]</tspan></text><text  id="v-150" font-size="24" xml:space="preserve" y="152.2" text-anchor="middle" font-family="Open Sans" fill="#000000" dominant-baseline="hanging" transform="matrix(1,0,0,1,225,0)" style="display: block; fill: rgb(0, 0, 0);"><tspan dy="0" >Implements</tspan><tspan dy="1.2em" x="0" >ExternalDriverContextFacade to</tspan><tspan dy="1.2em" x="0" >query other BCs safely (e.g., latest</tspan><tspan dy="1.2em" x="0" >DrivingStats).</tspan></text><g  id="v-151" color="#000000" transform="matrix(1,0,0,1,222.5,268)" display="none" style="fill: rgb(0, 0, 0);"><g ></g><g ></g><g ></g><g ></g></g><image  id="v-152"></image></g></g><!--z-index:46--><g   id="j_15"  transform="translate(1719,1381)" style=""><g  id="v-162" style="opacity: 1;"><rect  id="v-163" rx="1" ry="1" stroke-width="2" pointer-events="visiblePainted" fill="#ffffff" stroke="#444444" width="450" height="300" style="fill: rgb(255, 255, 255); stroke: rgb(68, 68, 68);"></rect><text  id="v-164" font-size="34" xml:space="preserve" y="86.6" font-weight="bold" text-anchor="middle" pointer-events="visible" font-family="Open Sans" fill="#444444" dominant-baseline="hanging" transform="matrix(1,0,0,1,225,0)" style="fill: rgb(68, 68, 68);"><tspan dy="0" >Domain Event Publisher</tspan></text><text  id="v-165" font-size="17" xml:space="preserve" y="128.6" text-anchor="middle" font-family="Open Sans" fill="#444444" dominant-baseline="hanging" transform="matrix(1,0,0,1,225,0)" style="display: block; fill: rgb(68, 68, 68);"><tspan dy="0" >[Component: Spring Application Events]</tspan></text><text  id="v-166" font-size="24" xml:space="preserve" y="160.6" text-anchor="middle" font-family="Open Sans" fill="#444444" dominant-baseline="hanging" transform="matrix(1,0,0,1,225,0)" style="display: block; fill: rgb(68, 68, 68);"><tspan dy="0" >Publishes domain events for</tspan><tspan dy="1.2em" x="0" >audit/notifications.</tspan></text><g  id="v-167" color="#444444" transform="matrix(1,0,0,1,222.5,268)" display="none" style="fill: rgb(68, 68, 68);"><g ></g><g ></g><g ></g><g ></g></g><image  id="v-168"></image></g></g><!--z-index:47--><g   id="j_16" ><path  stroke="#444444" d="M 1944 481 L 1569 781" id="v-181" stroke-width="2" stroke-dasharray="30 30" fill="none" style="opacity: 1;"></path><path  fill="black" stroke="black" d="M 0 0 0 0" transform="matrix(-0.7808688416748546,0.6246950072646418,-0.6246950072646418,-0.7808688416748546,1943.5,481)"></path><path  fill="#444444" stroke="#444444" d="M 20 0 L 0 10 L 20 20 z" id="v-183" transform="matrix(0.7808686753084834,-0.6246952152225711,0.6246952152225711,0.7808686753084834,1562.253076915002,773.1913171569533)" style="opacity: 1;"></path><path  d="M 1944 481 L 1569 781" id="v-182" fill="none" style="cursor: auto; pointer-events: visiblepainted;"></path><g ><g id="v-175"  label-idx="0" cursor="move" transform="matrix(1,0,0,1,1756.5,631)" style="cursor: default; opacity: 1;"><rect joint-selector="rect" id="v-178" fill="#ffffff" rx="3" ry="3" pointer-events="none" width="199.78125" height="61.484375" transform="matrix(1,0,0,1,-99.9,-30.8)"></rect><text joint-selector="text" id="v-177" font-size="24px" xml:space="preserve" y="0.8em" fill="#444444" text-anchor="middle" pointer-events="none" font-family="Open Sans" font-weight="normal" transform="matrix(1,0,0,1,0,-24.3)"><tspan dy="0" >Delegates driver</tspan><tspan dy="1.2em" x="0" >profile operations</tspan></text></g><g id="v-176"  label-idx="1" cursor="move" transform="matrix(1,0,0,1,1746.5,657.4000244140625)" style="cursor: default; opacity: 1;"><rect joint-selector="rect" id="v-180" fill="#ffffff" rx="3" ry="3"  width="0" height="0" transform="matrix(1,0,0,1,0,0)" display="none"></rect><text joint-selector="text" id="v-179" fill="#000000" font-size="14" text-anchor="middle" pointer-events="none"></text></g></g><g  display="none" style="display: none;"></g><g  id="v-185" display="none"><g  id="v-173"><path  end="source" d="M 26 0 L 0 13 L 26 26 z"></path></g><g  id="v-174"><path  end="target" d="M 26 0 L 0 13 L 26 26 z"></path></g></g><g  id="v-184" display="none"><g  id="v-172" transform="translate(1912.7652476222788, 505.987801902177) "><g  event="remove"><circle r="11"></circle><path transform="scale(.8) translate(-16, -16)" d="M24.778,21.419 19.276,15.917 24.777,10.415 21.949,7.585 16.447,13.087 10.945,7.585 8.117,10.415 13.618,15.917 8.116,21.419 10.946,24.248 16.447,18.746 21.948,24.248z"></path><title>Remove link.</title></g><g  event="link:options"><circle r="11" transform="translate(25)"></circle><path fill="white" transform="scale(.55) translate(29, -16)" d="M31.229,17.736c0.064-0.571,0.104-1.148,0.104-1.736s-0.04-1.166-0.104-1.737l-4.377-1.557c-0.218-0.716-0.504-1.401-0.851-2.05l1.993-4.192c-0.725-0.91-1.549-1.734-2.458-2.459l-4.193,1.994c-0.647-0.347-1.334-0.632-2.049-0.849l-1.558-4.378C17.165,0.708,16.588,0.667,16,0.667s-1.166,0.041-1.737,0.105L12.707,5.15c-0.716,0.217-1.401,0.502-2.05,0.849L6.464,4.005C5.554,4.73,4.73,5.554,4.005,6.464l1.994,4.192c-0.347,0.648-0.632,1.334-0.849,2.05l-4.378,1.557C0.708,14.834,0.667,15.412,0.667,16s0.041,1.165,0.105,1.736l4.378,1.558c0.217,0.715,0.502,1.401,0.849,2.049l-1.994,4.193c0.725,0.909,1.549,1.733,2.459,2.458l4.192-1.993c0.648,0.347,1.334,0.633,2.05,0.851l1.557,4.377c0.571,0.064,1.148,0.104,1.737,0.104c0.588,0,1.165-0.04,1.736-0.104l1.558-4.377c0.715-0.218,1.399-0.504,2.049-0.851l4.193,1.993c0.909-0.725,1.733-1.549,2.458-2.458l-1.993-4.193c0.347-0.647,0.633-1.334,0.851-2.049L31.229,17.736zM16,20.871c-2.69,0-4.872-2.182-4.872-4.871c0-2.69,2.182-4.872,4.872-4.872c2.689,0,4.871,2.182,4.871,4.872C20.871,18.689,18.689,20.871,16,20.871z"></path><title>Link options.</title></g></g></g></g><!--z-index:48--><g   id="j_17" ><path  stroke="#444444" d="M 2131 481 L 2131 781" id="v-198" stroke-width="2" stroke-dasharray="30 30" fill="none" style="opacity: 1;"></path><path  fill="black" stroke="black" d="M 0 0 0 0" transform="matrix(6.123233995736766e-17,1,-1,6.123233995736766e-17,2131,481)"></path><path  fill="#444444" stroke="#444444" d="M 20 0 L 0 10 L 20 20 z" id="v-200" transform="matrix(-1.8369701987210297e-16,-1,1,-1.8369701987210297e-16,2121,780.9999999999999)" style="opacity: 1;"></path><path  d="M 2131 481 L 2131 781" id="v-199" fill="none" style="cursor: auto; pointer-events: visiblepainted;"></path><g ><g id="v-192"  label-idx="0" cursor="move" transform="matrix(1,0,0,1,2131,631)" style="cursor: default; opacity: 1;"><rect joint-selector="rect" id="v-195" fill="#ffffff" rx="3" ry="3" pointer-events="none" width="120.96875" height="90.296875" transform="matrix(1,0,0,1,-60.5,-45.2)"></rect><text joint-selector="text" id="v-194" font-size="24px" xml:space="preserve" y="0.8em" fill="#444444" text-anchor="middle" pointer-events="none" font-family="Open Sans" font-weight="normal" transform="matrix(1,0,0,1,0,-38.7)"><tspan dy="0" >Delegates</tspan><tspan dy="1.2em" x="0" >prediction</tspan><tspan dy="1.2em" x="0" >operations</tspan></text></g><g id="v-193"  label-idx="1" cursor="move" transform="matrix(1,0,0,1,2121,671.7999877929688)" style="cursor: default; opacity: 1;"><rect joint-selector="rect" id="v-197" fill="#ffffff" rx="3" ry="3"  width="0" height="0" transform="matrix(1,0,0,1,0,0)" display="none"></rect><text joint-selector="text" id="v-196" fill="#000000" font-size="14" text-anchor="middle" pointer-events="none"></text></g></g><g  display="none" style="display: none;"></g><g  id="v-202" display="none"><g  id="v-190"><path  end="source" d="M 26 0 L 0 13 L 26 26 z"></path></g><g  id="v-191"><path  end="target" d="M 26 0 L 0 13 L 26 26 z"></path></g></g><g  id="v-201" display="none"><g  id="v-189" transform="translate(2131, 521) "><g  event="remove"><circle r="11"></circle><path transform="scale(.8) translate(-16, -16)" d="M24.778,21.419 19.276,15.917 24.777,10.415 21.949,7.585 16.447,13.087 10.945,7.585 8.117,10.415 13.618,15.917 8.116,21.419 10.946,24.248 16.447,18.746 21.948,24.248z"></path><title>Remove link.</title></g><g  event="link:options"><circle r="11" transform="translate(25)"></circle><path fill="white" transform="scale(.55) translate(29, -16)" d="M31.229,17.736c0.064-0.571,0.104-1.148,0.104-1.736s-0.04-1.166-0.104-1.737l-4.377-1.557c-0.218-0.716-0.504-1.401-0.851-2.05l1.993-4.192c-0.725-0.91-1.549-1.734-2.458-2.459l-4.193,1.994c-0.647-0.347-1.334-0.632-2.049-0.849l-1.558-4.378C17.165,0.708,16.588,0.667,16,0.667s-1.166,0.041-1.737,0.105L12.707,5.15c-0.716,0.217-1.401,0.502-2.05,0.849L6.464,4.005C5.554,4.73,4.73,5.554,4.005,6.464l1.994,4.192c-0.347,0.648-0.632,1.334-0.849,2.05l-4.378,1.557C0.708,14.834,0.667,15.412,0.667,16s0.041,1.165,0.105,1.736l4.378,1.558c0.217,0.715,0.502,1.401,0.849,2.049l-1.994,4.193c0.725,0.909,1.549,1.733,2.459,2.458l4.192-1.993c0.648,0.347,1.334,0.633,2.05,0.851l1.557,4.377c0.571,0.064,1.148,0.104,1.737,0.104c0.588,0,1.165-0.04,1.736-0.104l1.558-4.377c0.715-0.218,1.399-0.504,2.049-0.851l4.193,1.993c0.909-0.725,1.733-1.549,2.458-2.458l-1.993-4.193c0.347-0.647,0.633-1.334,0.851-2.049L31.229,17.736zM16,20.871c-2.69,0-4.872-2.182-4.872-4.871c0-2.69,2.182-4.872,4.872-4.872c2.689,0,4.871,2.182,4.871,4.872C20.871,18.689,18.689,20.871,16,20.871z"></path><title>Link options.</title></g></g></g></g><!--z-index:49--><g   id="j_18" ><path  stroke="#444444" d="M 2356 451 L 3031 811" id="v-215" stroke-width="2" stroke-dasharray="30 30" fill="none" style="opacity: 1;"></path><path  fill="black" stroke="black" d="M 0 0 0 0" transform="matrix(0.882352941656223,0.47058823439458186,-0.47058823439458186,0.882352941656223,2356,451)"></path><path  fill="#444444" stroke="#444444" d="M 20 0 L 0 10 L 20 20 z" id="v-217" transform="matrix(-0.8823528789936015,-0.47058835188697873,0.47058835188697873,-0.8823528789936015,3026.294158942941,819.8235407267745)" style="opacity: 1;"></path><path  d="M 2356 451 L 3031 811" id="v-216" fill="none" style="cursor: auto; pointer-events: visiblepainted;"></path><g ><g id="v-209"  label-idx="0" cursor="move" transform="matrix(1,0,0,1,2693.5,631)" style="cursor: default; opacity: 1;"><rect joint-selector="rect" id="v-212" fill="#ffffff" rx="3" ry="3" pointer-events="none" width="193.65625" height="90.296875" transform="matrix(1,0,0,1,-96.8,-45.2)"></rect><text joint-selector="text" id="v-211" font-size="24px" xml:space="preserve" y="0.8em" fill="#444444" text-anchor="middle" pointer-events="none" font-family="Open Sans" font-weight="normal" transform="matrix(1,0,0,1,0,-38.7)"><tspan dy="0" >Delegates</tspan><tspan dy="1.2em" x="0" >recommendation</tspan><tspan dy="1.2em" x="0" >operations</tspan></text></g><g id="v-210"  label-idx="1" cursor="move" transform="matrix(1,0,0,1,2683.5,671.7999877929688)" style="cursor: default; opacity: 1;"><rect joint-selector="rect" id="v-214" fill="#ffffff" rx="3" ry="3"  width="0" height="0" transform="matrix(1,0,0,1,0,0)" display="none"></rect><text joint-selector="text" id="v-213" fill="#000000" font-size="14" text-anchor="middle" pointer-events="none"></text></g></g><g  display="none" style="display: none;"></g><g  id="v-219" display="none"><g  id="v-207"><path  end="source" d="M 26 0 L 0 13 L 26 26 z"></path></g><g  id="v-208"><path  end="target" d="M 26 0 L 0 13 L 26 26 z"></path></g></g><g  id="v-218" display="none"><g  id="v-206" transform="translate(2391.2941176470586, 469.8235294117647) "><g  event="remove"><circle r="11"></circle><path transform="scale(.8) translate(-16, -16)" d="M24.778,21.419 19.276,15.917 24.777,10.415 21.949,7.585 16.447,13.087 10.945,7.585 8.117,10.415 13.618,15.917 8.116,21.419 10.946,24.248 16.447,18.746 21.948,24.248z"></path><title>Remove link.</title></g><g  event="link:options"><circle r="11" transform="translate(25)"></circle><path fill="white" transform="scale(.55) translate(29, -16)" d="M31.229,17.736c0.064-0.571,0.104-1.148,0.104-1.736s-0.04-1.166-0.104-1.737l-4.377-1.557c-0.218-0.716-0.504-1.401-0.851-2.05l1.993-4.192c-0.725-0.91-1.549-1.734-2.458-2.459l-4.193,1.994c-0.647-0.347-1.334-0.632-2.049-0.849l-1.558-4.378C17.165,0.708,16.588,0.667,16,0.667s-1.166,0.041-1.737,0.105L12.707,5.15c-0.716,0.217-1.401,0.502-2.05,0.849L6.464,4.005C5.554,4.73,4.73,5.554,4.005,6.464l1.994,4.192c-0.347,0.648-0.632,1.334-0.849,2.05l-4.378,1.557C0.708,14.834,0.667,15.412,0.667,16s0.041,1.165,0.105,1.736l4.378,1.558c0.217,0.715,0.502,1.401,0.849,2.049l-1.994,4.193c0.725,0.909,1.549,1.733,2.459,2.458l4.192-1.993c0.648,0.347,1.334,0.633,2.05,0.851l1.557,4.377c0.571,0.064,1.148,0.104,1.737,0.104c0.588,0,1.165-0.04,1.736-0.104l1.558-4.377c0.715-0.218,1.399-0.504,2.049-0.851l4.193,1.993c0.909-0.725,1.733-1.549,2.458-2.458l-1.993-4.193c0.347-0.647,0.633-1.334,0.851-2.049L31.229,17.736zM16,20.871c-2.69,0-4.872-2.182-4.872-4.871c0-2.69,2.182-4.872,4.872-4.872c2.689,0,4.871,2.182,4.871,4.872C20.871,18.689,18.689,20.871,16,20.871z"></path><title>Link options.</title></g></g></g></g><!--z-index:50--><g   id="j_19" ><path  stroke="#444444" d="M 1156 1075 L 669 1387" id="v-229" stroke-width="2" stroke-dasharray="30 30" fill="none" style="opacity: 1;"></path><path  fill="black" stroke="black" d="M 0 0 0 0" transform="matrix(-0.8421408400542756,0.5392576429803096,-0.5392576429803096,-0.8421408400542756,1156,1075.0767822265625)"></path><path  fill="#444444" stroke="#444444" d="M 20 0 L 0 10 L 20 20 z" id="v-231" transform="matrix(0.8421408400542755,-0.5392576429803098,0.5392576429803098,0.8421408400542755,663.6074018884043,1378.5018076776978)" style="opacity: 1;"></path><path  d="M 1156 1075 L 669 1387" id="v-230" fill="none" style="cursor: auto; pointer-events: visiblepainted;"></path><g ><g id="v-223"  label-idx="0" cursor="move" transform="matrix(1,0,0,1,912.5,1231)" style="cursor: default; opacity: 1;"><rect joint-selector="rect" id="v-226" fill="#ffffff" rx="3" ry="3" pointer-events="none" width="53.875" height="32.6875" transform="matrix(1,0,0,1,-26.9,-16.4)"></rect><text joint-selector="text" id="v-225" font-size="24px" xml:space="preserve" y="0.8em" fill="#444444" text-anchor="middle" pointer-events="none" font-family="Open Sans" font-weight="normal" transform="matrix(1,0,0,1,0,-9.9)"><tspan dy="0" >Uses</tspan></text></g><g id="v-224"  label-idx="1" cursor="move" transform="matrix(1,0,0,1,902.5,1243)" style="cursor: default; opacity: 1;"><rect joint-selector="rect" id="v-228" fill="#ffffff" rx="3" ry="3"  width="0" height="0" transform="matrix(1,0,0,1,0,0)" display="none"></rect><text joint-selector="text" id="v-227" fill="#000000" font-size="14" text-anchor="middle" pointer-events="none"></text></g></g><g  display="none" style="display: none;"></g><g  id="v-233" display="none"><g  id="v-221"><path  end="source" d="M 26 0 L 0 13 L 26 26 z"></path></g><g  id="v-222"><path  end="target" d="M 26 0 L 0 13 L 26 26 z"></path></g></g><g  id="v-232" display="none"><g  id="v-220" transform="translate(1122.31919581517, 1096.577845802191) "><g  event="remove"><circle r="11"></circle><path transform="scale(.8) translate(-16, -16)" d="M24.778,21.419 19.276,15.917 24.777,10.415 21.949,7.585 16.447,13.087 10.945,7.585 8.117,10.415 13.618,15.917 8.116,21.419 10.946,24.248 16.447,18.746 21.948,24.248z"></path><title>Remove link.</title></g><g  event="link:options"><circle r="11" transform="translate(25)"></circle><path fill="white" transform="scale(.55) translate(29, -16)" d="M31.229,17.736c0.064-0.571,0.104-1.148,0.104-1.736s-0.04-1.166-0.104-1.737l-4.377-1.557c-0.218-0.716-0.504-1.401-0.851-2.05l1.993-4.192c-0.725-0.91-1.549-1.734-2.458-2.459l-4.193,1.994c-0.647-0.347-1.334-0.632-2.049-0.849l-1.558-4.378C17.165,0.708,16.588,0.667,16,0.667s-1.166,0.041-1.737,0.105L12.707,5.15c-0.716,0.217-1.401,0.502-2.05,0.849L6.464,4.005C5.554,4.73,4.73,5.554,4.005,6.464l1.994,4.192c-0.347,0.648-0.632,1.334-0.849,2.05l-4.378,1.557C0.708,14.834,0.667,15.412,0.667,16s0.041,1.165,0.105,1.736l4.378,1.558c0.217,0.715,0.502,1.401,0.849,2.049l-1.994,4.193c0.725,0.909,1.549,1.733,2.459,2.458l4.192-1.993c0.648,0.347,1.334,0.633,2.05,0.851l1.557,4.377c0.571,0.064,1.148,0.104,1.737,0.104c0.588,0,1.165-0.04,1.736-0.104l1.558-4.377c0.715-0.218,1.399-0.504,2.049-0.851l4.193,1.993c0.909-0.725,1.733-1.549,2.458-2.458l-1.993-4.193c0.347-0.647,0.633-1.334,0.851-2.049L31.229,17.736zM16,20.871c-2.69,0-4.872-2.182-4.872-4.871c0-2.69,2.182-4.872,4.872-4.872c2.689,0,4.871,2.182,4.871,4.872C20.871,18.689,18.689,20.871,16,20.871z"></path><title>Link options.</title></g></g></g></g><!--z-index:51--><g   id="j_20" ><path  stroke="#444444" d="M 2272 1081 L 2553 1381" id="v-243" stroke-width="2" stroke-dasharray="30 30" fill="none" style="opacity: 1;"></path><path  fill="black" stroke="black" d="M 0 0 0 0" transform="matrix(0.6842644991422012,0.72923390980787,-0.72923390980787,0.6842644991422012,2271.75,1081)"></path><path  fill="#444444" stroke="#444444" d="M 20 0 L 0 10 L 20 20 z" id="v-245" transform="matrix(-0.6842645476938839,-0.7292338642502036,0.7292338642502036,-0.6842645476938839,2545.957777537562,1387.8426257210033)" style="opacity: 1;"></path><path  d="M 2272 1081 L 2553 1381" id="v-244" fill="none" style="cursor: auto; pointer-events: visiblepainted;"></path><g ><g id="v-237"  label-idx="0" cursor="move" transform="matrix(1,0,0,1,2412.5,1231)" style="cursor: default; opacity: 1;"><rect joint-selector="rect" id="v-240" fill="#ffffff" rx="3" ry="3" pointer-events="none" width="53.875" height="32.6875" transform="matrix(1,0,0,1,-26.9,-16.4)"></rect><text joint-selector="text" id="v-239" font-size="24px" xml:space="preserve" y="0.8em" fill="#444444" text-anchor="middle" pointer-events="none" font-family="Open Sans" font-weight="normal" transform="matrix(1,0,0,1,0,-9.9)"><tspan dy="0" >Uses</tspan></text></g><g id="v-238"  label-idx="1" cursor="move" transform="matrix(1,0,0,1,2402.5,1243)" style="cursor: default; opacity: 1;"><rect joint-selector="rect" id="v-242" fill="#ffffff" rx="3" ry="3"  width="0" height="0" transform="matrix(1,0,0,1,0,0)" display="none"></rect><text joint-selector="text" id="v-241" fill="#000000" font-size="14" text-anchor="middle" pointer-events="none"></text></g></g><g  display="none" style="display: none;"></g><g  id="v-247" display="none"><g  id="v-235"><path  end="source" d="M 26 0 L 0 13 L 26 26 z"></path></g><g  id="v-236"><path  end="target" d="M 26 0 L 0 13 L 26 26 z"></path></g></g><g  id="v-246" display="none"><g  id="v-234" transform="translate(2299.3446944931775, 1110.1936240140685) "><g  event="remove"><circle r="11"></circle><path transform="scale(.8) translate(-16, -16)" d="M24.778,21.419 19.276,15.917 24.777,10.415 21.949,7.585 16.447,13.087 10.945,7.585 8.117,10.415 13.618,15.917 8.116,21.419 10.946,24.248 16.447,18.746 21.948,24.248z"></path><title>Remove link.</title></g><g  event="link:options"><circle r="11" transform="translate(25)"></circle><path fill="white" transform="scale(.55) translate(29, -16)" d="M31.229,17.736c0.064-0.571,0.104-1.148,0.104-1.736s-0.04-1.166-0.104-1.737l-4.377-1.557c-0.218-0.716-0.504-1.401-0.851-2.05l1.993-4.192c-0.725-0.91-1.549-1.734-2.458-2.459l-4.193,1.994c-0.647-0.347-1.334-0.632-2.049-0.849l-1.558-4.378C17.165,0.708,16.588,0.667,16,0.667s-1.166,0.041-1.737,0.105L12.707,5.15c-0.716,0.217-1.401,0.502-2.05,0.849L6.464,4.005C5.554,4.73,4.73,5.554,4.005,6.464l1.994,4.192c-0.347,0.648-0.632,1.334-0.849,2.05l-4.378,1.557C0.708,14.834,0.667,15.412,0.667,16s0.041,1.165,0.105,1.736l4.378,1.558c0.217,0.715,0.502,1.401,0.849,2.049l-1.994,4.193c0.725,0.909,1.549,1.733,2.459,2.458l4.192-1.993c0.648,0.347,1.334,0.633,2.05,0.851l1.557,4.377c0.571,0.064,1.148,0.104,1.737,0.104c0.588,0,1.165-0.04,1.736-0.104l1.558-4.377c0.715-0.218,1.399-0.504,2.049-0.851l4.193,1.993c0.909-0.725,1.733-1.549,2.458-2.458l-1.993-4.193c0.347-0.647,0.633-1.334,0.851-2.049L31.229,17.736zM16,20.871c-2.69,0-4.872-2.182-4.872-4.871c0-2.69,2.182-4.872,4.872-4.872c2.689,0,4.871,2.182,4.871,4.872C20.871,18.689,18.689,20.871,16,20.871z"></path><title>Link options.</title></g></g></g></g><!--z-index:52--><g   id="j_21" ><path  stroke="#444444" d="M 3303 1081 L 3397 1381" id="v-257" stroke-width="2" stroke-dasharray="30 30" fill="none" style="opacity: 1;"></path><path  fill="black" stroke="black" d="M 0 0 0 0" transform="matrix(0.29899939426751815,0.9542533008733358,-0.9542533008733358,0.29899939426751815,3303,1081)"></path><path  fill="#444444" stroke="#444444" d="M 20 0 L 0 10 L 20 20 z" id="v-259" transform="matrix(-0.29899926720100295,-0.9542533406875049,0.9542533406875049,-0.29899926720100295,3387.45746903076,1383.990045610135)" style="opacity: 1;"></path><path  d="M 3303 1081 L 3397 1381" id="v-258" fill="none" style="cursor: auto; pointer-events: visiblepainted;"></path><g ><g id="v-251"  label-idx="0" cursor="move" transform="matrix(1,0,0,1,3350,1231)" style="cursor: default; opacity: 1;"><rect joint-selector="rect" id="v-254" fill="#ffffff" rx="3" ry="3" pointer-events="none" width="53.875" height="32.6875" transform="matrix(1,0,0,1,-26.9,-16.4)"></rect><text joint-selector="text" id="v-253" font-size="24px" xml:space="preserve" y="0.8em" fill="#444444" text-anchor="middle" pointer-events="none" font-family="Open Sans" font-weight="normal" transform="matrix(1,0,0,1,0,-9.9)"><tspan dy="0" >Uses</tspan></text></g><g id="v-252"  label-idx="1" cursor="move" transform="matrix(1,0,0,1,3340,1243)" style="cursor: default; opacity: 1;"><rect joint-selector="rect" id="v-256" fill="#ffffff" rx="3" ry="3"  width="0" height="0" transform="matrix(1,0,0,1,0,0)" display="none"></rect><text joint-selector="text" id="v-255" fill="#000000" font-size="14" text-anchor="middle" pointer-events="none"></text></g></g><g  display="none" style="display: none;"></g><g  id="v-261" display="none"><g  id="v-249"><path  end="source" d="M 26 0 L 0 13 L 26 26 z"></path></g><g  id="v-250"><path  end="target" d="M 26 0 L 0 13 L 26 26 z"></path></g></g><g  id="v-260" display="none"><g  id="v-248" transform="translate(3314.959974799618, 1119.170132339206) "><g  event="remove"><circle r="11"></circle><path transform="scale(.8) translate(-16, -16)" d="M24.778,21.419 19.276,15.917 24.777,10.415 21.949,7.585 16.447,13.087 10.945,7.585 8.117,10.415 13.618,15.917 8.116,21.419 10.946,24.248 16.447,18.746 21.948,24.248z"></path><title>Remove link.</title></g><g  event="link:options"><circle r="11" transform="translate(25)"></circle><path fill="white" transform="scale(.55) translate(29, -16)" d="M31.229,17.736c0.064-0.571,0.104-1.148,0.104-1.736s-0.04-1.166-0.104-1.737l-4.377-1.557c-0.218-0.716-0.504-1.401-0.851-2.05l1.993-4.192c-0.725-0.91-1.549-1.734-2.458-2.459l-4.193,1.994c-0.647-0.347-1.334-0.632-2.049-0.849l-1.558-4.378C17.165,0.708,16.588,0.667,16,0.667s-1.166,0.041-1.737,0.105L12.707,5.15c-0.716,0.217-1.401,0.502-2.05,0.849L6.464,4.005C5.554,4.73,4.73,5.554,4.005,6.464l1.994,4.192c-0.347,0.648-0.632,1.334-0.849,2.05l-4.378,1.557C0.708,14.834,0.667,15.412,0.667,16s0.041,1.165,0.105,1.736l4.378,1.558c0.217,0.715,0.502,1.401,0.849,2.049l-1.994,4.193c0.725,0.909,1.549,1.733,2.459,2.458l4.192-1.993c0.648,0.347,1.334,0.633,2.05,0.851l1.557,4.377c0.571,0.064,1.148,0.104,1.737,0.104c0.588,0,1.165-0.04,1.736-0.104l1.558-4.377c0.715-0.218,1.399-0.504,2.049-0.851l4.193,1.993c0.909-0.725,1.733-1.549,2.458-2.458l-1.993-4.193c0.347-0.647,0.633-1.334,0.851-2.049L31.229,17.736zM16,20.871c-2.69,0-4.872-2.182-4.872-4.871c0-2.69,2.182-4.872,4.872-4.872c2.689,0,4.871,2.182,4.871,4.872C20.871,18.689,18.689,20.871,16,20.871z"></path><title>Link options.</title></g></g></g></g><!--z-index:53--><g   id="j_22" ><path  stroke="#444444" d="M 3481 1075 L 3969 1387" id="v-274" stroke-width="2" stroke-dasharray="30 30" fill="none" style="opacity: 1;"></path><path  fill="black" stroke="black" d="M 0 0 0 0" transform="matrix(0.8424018656445467,0.5388497905340478,-0.5388497905340478,0.8424018656445467,3481,1074.9232177734375)"></path><path  fill="#444444" stroke="#444444" d="M 20 0 L 0 10 L 20 20 z" id="v-276" transform="matrix(-0.8424018297684499,-0.5388498466203434,0.5388498466203434,-0.8424018297684499,3963.611447565856,1395.500749185763)" style="opacity: 1;"></path><path  d="M 3481 1075 L 3969 1387" id="v-275" fill="none" style="cursor: auto; pointer-events: visiblepainted;"></path><g ><g id="v-268"  label-idx="0" cursor="move" transform="matrix(1,0,0,1,3725,1231)" style="cursor: default; opacity: 1;"><rect joint-selector="rect" id="v-271" fill="#ffffff" rx="3" ry="3" pointer-events="none" width="193.65625" height="90.296875" transform="matrix(1,0,0,1,-96.8,-45.2)"></rect><text joint-selector="text" id="v-270" font-size="24px" xml:space="preserve" y="0.8em" fill="#444444" text-anchor="middle" pointer-events="none" font-family="Open Sans" font-weight="normal" transform="matrix(1,0,0,1,0,-38.7)"><tspan dy="0" >Invokes for</tspan><tspan dy="1.2em" x="0" >recommendation</tspan><tspan dy="1.2em" x="0" >text</tspan></text></g><g id="v-269"  label-idx="1" cursor="move" transform="matrix(1,0,0,1,3715,1271.800048828125)" style="cursor: default; opacity: 1;"><rect joint-selector="rect" id="v-273" fill="#ffffff" rx="3" ry="3"  width="0" height="0" transform="matrix(1,0,0,1,0,0)" display="none"></rect><text joint-selector="text" id="v-272" fill="#000000" font-size="14" text-anchor="middle" pointer-events="none"></text></g></g><g  display="none" style="display: none;"></g><g  id="v-278" display="none"><g  id="v-266"><path  end="source" d="M 26 0 L 0 13 L 26 26 z"></path></g><g  id="v-267"><path  end="target" d="M 26 0 L 0 13 L 26 26 z"></path></g></g><g  id="v-277" display="none"><g  id="v-265" transform="translate(3514.700885950516, 1096.5464680667233) "><g  event="remove"><circle r="11"></circle><path transform="scale(.8) translate(-16, -16)" d="M24.778,21.419 19.276,15.917 24.777,10.415 21.949,7.585 16.447,13.087 10.945,7.585 8.117,10.415 13.618,15.917 8.116,21.419 10.946,24.248 16.447,18.746 21.948,24.248z"></path><title>Remove link.</title></g><g  event="link:options"><circle r="11" transform="translate(25)"></circle><path fill="white" transform="scale(.55) translate(29, -16)" d="M31.229,17.736c0.064-0.571,0.104-1.148,0.104-1.736s-0.04-1.166-0.104-1.737l-4.377-1.557c-0.218-0.716-0.504-1.401-0.851-2.05l1.993-4.192c-0.725-0.91-1.549-1.734-2.458-2.459l-4.193,1.994c-0.647-0.347-1.334-0.632-2.049-0.849l-1.558-4.378C17.165,0.708,16.588,0.667,16,0.667s-1.166,0.041-1.737,0.105L12.707,5.15c-0.716,0.217-1.401,0.502-2.05,0.849L6.464,4.005C5.554,4.73,4.73,5.554,4.005,6.464l1.994,4.192c-0.347,0.648-0.632,1.334-0.849,2.05l-4.378,1.557C0.708,14.834,0.667,15.412,0.667,16s0.041,1.165,0.105,1.736l4.378,1.558c0.217,0.715,0.502,1.401,0.849,2.049l-1.994,4.193c0.725,0.909,1.549,1.733,2.459,2.458l4.192-1.993c0.648,0.347,1.334,0.633,2.05,0.851l1.557,4.377c0.571,0.064,1.148,0.104,1.737,0.104c0.588,0,1.165-0.04,1.736-0.104l1.558-4.377c0.715-0.218,1.399-0.504,2.049-0.851l4.193,1.993c0.909-0.725,1.733-1.549,2.458-2.458l-1.993-4.193c0.347-0.647,0.633-1.334,0.851-2.049L31.229,17.736zM16,20.871c-2.69,0-4.872-2.182-4.872-4.871c0-2.69,2.182-4.872,4.872-4.872c2.689,0,4.871,2.182,4.871,4.872C20.871,18.689,18.689,20.871,16,20.871z"></path><title>Link options.</title></g></g></g></g><!--z-index:54--><g   id="j_23" ><path  stroke="#444444" d="M 4194 1681 L 4194 1981" id="v-288" stroke-width="2" stroke-dasharray="30 30" fill="none" style="opacity: 1;"></path><path  fill="black" stroke="black" d="M 0 0 0 0" transform="matrix(6.123233995736766e-17,1,-1,6.123233995736766e-17,4194,1681)"></path><path  fill="#444444" stroke="#444444" d="M 20 0 L 0 10 L 20 20 z" id="v-290" transform="matrix(-1.8369701987210297e-16,-1,1,-1.8369701987210297e-16,4184,1981)" style="opacity: 1;"></path><path  d="M 4194 1681 L 4194 1981" id="v-289" fill="none" style="cursor: auto; pointer-events: visiblepainted;"></path><g ><g id="v-282"  label-idx="0" cursor="move" transform="matrix(1,0,0,1,4194,1831)" style="cursor: default; opacity: 1;"><rect joint-selector="rect" id="v-285" fill="#ffffff" rx="3" ry="3" pointer-events="none" width="0" height="0" transform="matrix(1,0,0,1,0,0)"></rect><text joint-selector="text" id="v-284" font-size="24px" xml:space="preserve" display="none" y="0.8em" fill="#444444" text-anchor="middle" pointer-events="none" font-family="Open Sans" font-weight="normal"><tspan dy="0" style="fill-opacity: 0; stroke-opacity: 0;" >-</tspan></text></g><g id="v-283"  label-idx="1" cursor="move" transform="matrix(1,0,0,1,4184,1831)" style="cursor: default; opacity: 1;"><rect joint-selector="rect" id="v-287" fill="#ffffff" rx="3" ry="3"  width="0" height="0" transform="matrix(1,0,0,1,0,0)" display="none"></rect><text joint-selector="text" id="v-286" fill="#000000" font-size="14" text-anchor="middle" pointer-events="none"></text></g></g><g  display="none" style="display: none;"></g><g  id="v-292" display="none"><g  id="v-280"><path  end="source" d="M 26 0 L 0 13 L 26 26 z"></path></g><g  id="v-281"><path  end="target" d="M 26 0 L 0 13 L 26 26 z"></path></g></g><g  id="v-291" display="none"><g  id="v-279" transform="translate(4194, 1721) "><g  event="remove"><circle r="11"></circle><path transform="scale(.8) translate(-16, -16)" d="M24.778,21.419 19.276,15.917 24.777,10.415 21.949,7.585 16.447,13.087 10.945,7.585 8.117,10.415 13.618,15.917 8.116,21.419 10.946,24.248 16.447,18.746 21.948,24.248z"></path><title>Remove link.</title></g><g  event="link:options"><circle r="11" transform="translate(25)"></circle><path fill="white" transform="scale(.55) translate(29, -16)" d="M31.229,17.736c0.064-0.571,0.104-1.148,0.104-1.736s-0.04-1.166-0.104-1.737l-4.377-1.557c-0.218-0.716-0.504-1.401-0.851-2.05l1.993-4.192c-0.725-0.91-1.549-1.734-2.458-2.459l-4.193,1.994c-0.647-0.347-1.334-0.632-2.049-0.849l-1.558-4.378C17.165,0.708,16.588,0.667,16,0.667s-1.166,0.041-1.737,0.105L12.707,5.15c-0.716,0.217-1.401,0.502-2.05,0.849L6.464,4.005C5.554,4.73,4.73,5.554,4.005,6.464l1.994,4.192c-0.347,0.648-0.632,1.334-0.849,2.05l-4.378,1.557C0.708,14.834,0.667,15.412,0.667,16s0.041,1.165,0.105,1.736l4.378,1.558c0.217,0.715,0.502,1.401,0.849,2.049l-1.994,4.193c0.725,0.909,1.549,1.733,2.459,2.458l4.192-1.993c0.648,0.347,1.334,0.633,2.05,0.851l1.557,4.377c0.571,0.064,1.148,0.104,1.737,0.104c0.588,0,1.165-0.04,1.736-0.104l1.558-4.377c0.715-0.218,1.399-0.504,2.049-0.851l4.193,1.993c0.909-0.725,1.733-1.549,2.458-2.458l-1.993-4.193c0.347-0.647,0.633-1.334,0.851-2.049L31.229,17.736zM16,20.871c-2.69,0-4.872-2.182-4.872-4.871c0-2.69,2.182-4.872,4.872-4.872c2.689,0,4.871,2.182,4.871,4.872C20.871,18.689,18.689,20.871,16,20.871z"></path><title>Link options.</title></g></g></g></g><!--z-index:55--><g   id="j_24" ><path  stroke="#444444" d="M 1334 1081 L 1241 1381" id="v-305" stroke-width="2" stroke-dasharray="30 30" fill="none" style="opacity: 1;"></path><path  fill="black" stroke="black" d="M 0 0 0 0" transform="matrix(-0.2975501106981555,0.9547062017309385,-0.9547062017309385,-0.2975501106981555,1334.25,1081)"></path><path  fill="#444444" stroke="#444444" d="M 20 0 L 0 10 L 20 20 z" id="v-307" transform="matrix(0.2975501106981554,-0.9547062017309386,0.9547062017309386,0.2975501106981554,1231.2029007428966,1378.0244417697027)" style="opacity: 1;"></path><path  d="M 1334 1081 L 1241 1381" id="v-306" fill="none" style="cursor: auto; pointer-events: visiblepainted;"></path><g ><g id="v-299"  label-idx="0" cursor="move" transform="matrix(1,0,0,1,1287.5,1231)" style="cursor: default; opacity: 1;"><rect joint-selector="rect" id="v-302" fill="#ffffff" rx="3" ry="3" pointer-events="none" width="171" height="90.296875" transform="matrix(1,0,0,1,-85.5,-45.2)"></rect><text joint-selector="text" id="v-301" font-size="24px" xml:space="preserve" y="0.8em" fill="#444444" text-anchor="middle" pointer-events="none" font-family="Open Sans" font-weight="normal" transform="matrix(1,0,0,1,0,-38.7)"><tspan dy="0" >Fetches latest</tspan><tspan dy="1.2em" x="0" >DrivingStats /</tspan><tspan dy="1.2em" x="0" >validates driver</tspan></text></g><g id="v-300"  label-idx="1" cursor="move" transform="matrix(1,0,0,1,1277.5,1271.800048828125)" style="cursor: default; opacity: 1;"><rect joint-selector="rect" id="v-304" fill="#ffffff" rx="3" ry="3"  width="0" height="0" transform="matrix(1,0,0,1,0,0)" display="none"></rect><text joint-selector="text" id="v-303" fill="#000000" font-size="14" text-anchor="middle" pointer-events="none"></text></g></g><g  display="none" style="display: none;"></g><g  id="v-309" display="none"><g  id="v-297"><path  end="source" d="M 26 0 L 0 13 L 26 26 z"></path></g><g  id="v-298"><path  end="target" d="M 26 0 L 0 13 L 26 26 z"></path></g></g><g  id="v-308" display="none"><g  id="v-296" transform="translate(1322.156049155437, 1119.206293046978) "><g  event="remove"><circle r="11"></circle><path transform="scale(.8) translate(-16, -16)" d="M24.778,21.419 19.276,15.917 24.777,10.415 21.949,7.585 16.447,13.087 10.945,7.585 8.117,10.415 13.618,15.917 8.116,21.419 10.946,24.248 16.447,18.746 21.948,24.248z"></path><title>Remove link.</title></g><g  event="link:options"><circle r="11" transform="translate(25)"></circle><path fill="white" transform="scale(.55) translate(29, -16)" d="M31.229,17.736c0.064-0.571,0.104-1.148,0.104-1.736s-0.04-1.166-0.104-1.737l-4.377-1.557c-0.218-0.716-0.504-1.401-0.851-2.05l1.993-4.192c-0.725-0.91-1.549-1.734-2.458-2.459l-4.193,1.994c-0.647-0.347-1.334-0.632-2.049-0.849l-1.558-4.378C17.165,0.708,16.588,0.667,16,0.667s-1.166,0.041-1.737,0.105L12.707,5.15c-0.716,0.217-1.401,0.502-2.05,0.849L6.464,4.005C5.554,4.73,4.73,5.554,4.005,6.464l1.994,4.192c-0.347,0.648-0.632,1.334-0.849,2.05l-4.378,1.557C0.708,14.834,0.667,15.412,0.667,16s0.041,1.165,0.105,1.736l4.378,1.558c0.217,0.715,0.502,1.401,0.849,2.049l-1.994,4.193c0.725,0.909,1.549,1.733,2.459,2.458l4.192-1.993c0.648,0.347,1.334,0.633,2.05,0.851l1.557,4.377c0.571,0.064,1.148,0.104,1.737,0.104c0.588,0,1.165-0.04,1.736-0.104l1.558-4.377c0.715-0.218,1.399-0.504,2.049-0.851l4.193,1.993c0.909-0.725,1.733-1.549,2.458-2.458l-1.993-4.193c0.347-0.647,0.633-1.334,0.851-2.049L31.229,17.736zM16,20.871c-2.69,0-4.872-2.182-4.872-4.871c0-2.69,2.182-4.872,4.872-4.872c2.689,0,4.871,2.182,4.871,4.872C20.871,18.689,18.689,20.871,16,20.871z"></path><title>Link options.</title></g></g></g></g><!--z-index:56--><g   id="j_25" ><path  stroke="#444444" d="M 1522 1081 L 1803 1381" id="v-322" stroke-width="2" stroke-dasharray="30 30" fill="none" style="opacity: 1;"></path><path  fill="black" stroke="black" d="M 0 0 0 0" transform="matrix(0.6842644991422012,0.72923390980787,-0.72923390980787,0.6842644991422012,1521.75,1081)"></path><path  fill="#444444" stroke="#444444" d="M 20 0 L 0 10 L 20 20 z" id="v-324" transform="matrix(-0.6842645476938839,-0.7292338642502036,0.7292338642502036,-0.6842645476938839,1795.9576554672492,1387.8426257210033)" style="opacity: 1;"></path><path  d="M 1522 1081 L 1803 1381" id="v-323" fill="none" style="cursor: auto; pointer-events: visiblepainted;"></path><g ><g id="v-316"  label-idx="0" cursor="move" transform="matrix(1,0,0,1,1662.5,1231)" style="cursor: default; opacity: 1;"><rect joint-selector="rect" id="v-319" fill="#ffffff" rx="3" ry="3" pointer-events="none" width="198.71875" height="61.484375" transform="matrix(1,0,0,1,-99.4,-30.8)"></rect><text joint-selector="text" id="v-318" font-size="24px" xml:space="preserve" y="0.8em" fill="#444444" text-anchor="middle" pointer-events="none" font-family="Open Sans" font-weight="normal" transform="matrix(1,0,0,1,0,-24.3)"><tspan dy="0" >Publishes domain</tspan><tspan dy="1.2em" x="0" >events</tspan></text></g><g id="v-317"  label-idx="1" cursor="move" transform="matrix(1,0,0,1,1652.5,1257.4000244140625)" style="cursor: default; opacity: 1;"><rect joint-selector="rect" id="v-321" fill="#ffffff" rx="3" ry="3"  width="0" height="0" transform="matrix(1,0,0,1,0,0)" display="none"></rect><text joint-selector="text" id="v-320" fill="#000000" font-size="14" text-anchor="middle" pointer-events="none"></text></g></g><g  display="none" style="display: none;"></g><g  id="v-326" display="none"><g  id="v-314"><path  end="source" d="M 26 0 L 0 13 L 26 26 z"></path></g><g  id="v-315"><path  end="target" d="M 26 0 L 0 13 L 26 26 z"></path></g></g><g  id="v-325" display="none"><g  id="v-313" transform="translate(1549.3446944931775, 1110.1936240140685) "><g  event="remove"><circle r="11"></circle><path transform="scale(.8) translate(-16, -16)" d="M24.778,21.419 19.276,15.917 24.777,10.415 21.949,7.585 16.447,13.087 10.945,7.585 8.117,10.415 13.618,15.917 8.116,21.419 10.946,24.248 16.447,18.746 21.948,24.248z"></path><title>Remove link.</title></g><g  event="link:options"><circle r="11" transform="translate(25)"></circle><path fill="white" transform="scale(.55) translate(29, -16)" d="M31.229,17.736c0.064-0.571,0.104-1.148,0.104-1.736s-0.04-1.166-0.104-1.737l-4.377-1.557c-0.218-0.716-0.504-1.401-0.851-2.05l1.993-4.192c-0.725-0.91-1.549-1.734-2.458-2.459l-4.193,1.994c-0.647-0.347-1.334-0.632-2.049-0.849l-1.558-4.378C17.165,0.708,16.588,0.667,16,0.667s-1.166,0.041-1.737,0.105L12.707,5.15c-0.716,0.217-1.401,0.502-2.05,0.849L6.464,4.005C5.554,4.73,4.73,5.554,4.005,6.464l1.994,4.192c-0.347,0.648-0.632,1.334-0.849,2.05l-4.378,1.557C0.708,14.834,0.667,15.412,0.667,16s0.041,1.165,0.105,1.736l4.378,1.558c0.217,0.715,0.502,1.401,0.849,2.049l-1.994,4.193c0.725,0.909,1.549,1.733,2.459,2.458l4.192-1.993c0.648,0.347,1.334,0.633,2.05,0.851l1.557,4.377c0.571,0.064,1.148,0.104,1.737,0.104c0.588,0,1.165-0.04,1.736-0.104l1.558-4.377c0.715-0.218,1.399-0.504,2.049-0.851l4.193,1.993c0.909-0.725,1.733-1.549,2.458-2.458l-1.993-4.193c0.347-0.647,0.633-1.334,0.851-2.049L31.229,17.736zM16,20.871c-2.69,0-4.872-2.182-4.872-4.871c0-2.69,2.182-4.872,4.872-4.872c2.689,0,4.871,2.182,4.871,4.872C20.871,18.689,18.689,20.871,16,20.871z"></path><title>Link options.</title></g></g></g></g><!--z-index:57--><g   id="j_26" ><path  stroke="#444444" d="M 2084 1081 L 1991 1381" id="v-339" stroke-width="2" stroke-dasharray="30 30" fill="none" style="opacity: 1;"></path><path  fill="black" stroke="black" d="M 0 0 0 0" transform="matrix(-0.2975501106981555,0.9547062017309385,-0.9547062017309385,-0.2975501106981555,2084.25,1081)"></path><path  fill="#444444" stroke="#444444" d="M 20 0 L 0 10 L 20 20 z" id="v-341" transform="matrix(0.2975501106981554,-0.9547062017309386,0.9547062017309386,0.2975501106981554,1981.2029007428966,1378.0244417697027)" style="opacity: 1;"></path><path  d="M 2084 1081 L 1991 1381" id="v-340" fill="none" style="cursor: auto; pointer-events: visiblepainted;"></path><g ><g id="v-333"  label-idx="0" cursor="move" transform="matrix(1,0,0,1,2037.5,1231)" style="cursor: default; opacity: 1;"><rect joint-selector="rect" id="v-336" fill="#ffffff" rx="3" ry="3" pointer-events="none" width="198.71875" height="61.484375" transform="matrix(1,0,0,1,-99.4,-30.8)"></rect><text joint-selector="text" id="v-335" font-size="24px" xml:space="preserve" y="0.8em" fill="#444444" text-anchor="middle" pointer-events="none" font-family="Open Sans" font-weight="normal" transform="matrix(1,0,0,1,0,-24.3)"><tspan dy="0" >Publishes domain</tspan><tspan dy="1.2em" x="0" >events</tspan></text></g><g id="v-334"  label-idx="1" cursor="move" transform="matrix(1,0,0,1,2027.5,1257.4000244140625)" style="cursor: default; opacity: 1;"><rect joint-selector="rect" id="v-338" fill="#ffffff" rx="3" ry="3"  width="0" height="0" transform="matrix(1,0,0,1,0,0)" display="none"></rect><text joint-selector="text" id="v-337" fill="#000000" font-size="14" text-anchor="middle" pointer-events="none"></text></g></g><g  display="none" style="display: none;"></g><g  id="v-343" display="none"><g  id="v-331"><path  end="source" d="M 26 0 L 0 13 L 26 26 z"></path></g><g  id="v-332"><path  end="target" d="M 26 0 L 0 13 L 26 26 z"></path></g></g><g  id="v-342" display="none"><g  id="v-330" transform="translate(2072.1560491554364, 1119.206293046978) "><g  event="remove"><circle r="11"></circle><path transform="scale(.8) translate(-16, -16)" d="M24.778,21.419 19.276,15.917 24.777,10.415 21.949,7.585 16.447,13.087 10.945,7.585 8.117,10.415 13.618,15.917 8.116,21.419 10.946,24.248 16.447,18.746 21.948,24.248z"></path><title>Remove link.</title></g><g  event="link:options"><circle r="11" transform="translate(25)"></circle><path fill="white" transform="scale(.55) translate(29, -16)" d="M31.229,17.736c0.064-0.571,0.104-1.148,0.104-1.736s-0.04-1.166-0.104-1.737l-4.377-1.557c-0.218-0.716-0.504-1.401-0.851-2.05l1.993-4.192c-0.725-0.91-1.549-1.734-2.458-2.459l-4.193,1.994c-0.647-0.347-1.334-0.632-2.049-0.849l-1.558-4.378C17.165,0.708,16.588,0.667,16,0.667s-1.166,0.041-1.737,0.105L12.707,5.15c-0.716,0.217-1.401,0.502-2.05,0.849L6.464,4.005C5.554,4.73,4.73,5.554,4.005,6.464l1.994,4.192c-0.347,0.648-0.632,1.334-0.849,2.05l-4.378,1.557C0.708,14.834,0.667,15.412,0.667,16s0.041,1.165,0.105,1.736l4.378,1.558c0.217,0.715,0.502,1.401,0.849,2.049l-1.994,4.193c0.725,0.909,1.549,1.733,2.459,2.458l4.192-1.993c0.648,0.347,1.334,0.633,2.05,0.851l1.557,4.377c0.571,0.064,1.148,0.104,1.737,0.104c0.588,0,1.165-0.04,1.736-0.104l1.558-4.377c0.715-0.218,1.399-0.504,2.049-0.851l4.193,1.993c0.909-0.725,1.733-1.549,2.458-2.458l-1.993-4.193c0.347-0.647,0.633-1.334,0.851-2.049L31.229,17.736zM16,20.871c-2.69,0-4.872-2.182-4.872-4.871c0-2.69,2.182-4.872,4.872-4.872c2.689,0,4.871,2.182,4.871,4.872C20.871,18.689,18.689,20.871,16,20.871z"></path><title>Link options.</title></g></g></g></g><!--z-index:58--><g   id="j_27" ><path  stroke="#444444" d="M 3031 1034 L 2169 1428" id="v-356" stroke-width="2" stroke-dasharray="30 30" fill="none" style="opacity: 1;"></path><path  fill="black" stroke="black" d="M 0 0 0 0" transform="matrix(-0.909414580190569,0.41589075649359086,-0.41589075649359086,-0.909414580190569,3031,1033.8963623046875)"></path><path  fill="#444444" stroke="#444444" d="M 20 0 L 0 10 L 20 20 z" id="v-358" transform="matrix(0.9094144694321287,-0.4158909986853284,0.4158909986853284,0.9094144694321287,2164.8411836000755,1419.0094674409695)" style="opacity: 1;"></path><path  d="M 3031 1034 L 2169 1428" id="v-357" fill="none" style="cursor: auto; pointer-events: visiblepainted;"></path><g ><g id="v-350"  label-idx="0" cursor="move" transform="matrix(1,0,0,1,2600,1231)" style="cursor: default; opacity: 1;"><rect joint-selector="rect" id="v-353" fill="#ffffff" rx="3" ry="3" pointer-events="none" width="198.71875" height="61.484375" transform="matrix(1,0,0,1,-99.4,-30.8)"></rect><text joint-selector="text" id="v-352" font-size="24px" xml:space="preserve" y="0.8em" fill="#444444" text-anchor="middle" pointer-events="none" font-family="Open Sans" font-weight="normal" transform="matrix(1,0,0,1,0,-24.3)"><tspan dy="0" >Publishes domain</tspan><tspan dy="1.2em" x="0" >events</tspan></text></g><g id="v-351"  label-idx="1" cursor="move" transform="matrix(1,0,0,1,2590,1257.4000244140625)" style="cursor: default; opacity: 1;"><rect joint-selector="rect" id="v-355" fill="#ffffff" rx="3" ry="3"  width="0" height="0" transform="matrix(1,0,0,1,0,0)" display="none"></rect><text joint-selector="text" id="v-354" fill="#000000" font-size="14" text-anchor="middle" pointer-events="none"></text></g></g><g  display="none" style="display: none;"></g><g  id="v-360" display="none"><g  id="v-348"><path  end="source" d="M 26 0 L 0 13 L 26 26 z"></path></g><g  id="v-349"><path  end="target" d="M 26 0 L 0 13 L 26 26 z"></path></g></g><g  id="v-359" display="none"><g  id="v-347" transform="translate(2994.6201091274156, 1050.6283955960537) "><g  event="remove"><circle r="11"></circle><path transform="scale(.8) translate(-16, -16)" d="M24.778,21.419 19.276,15.917 24.777,10.415 21.949,7.585 16.447,13.087 10.945,7.585 8.117,10.415 13.618,15.917 8.116,21.419 10.946,24.248 16.447,18.746 21.948,24.248z"></path><title>Remove link.</title></g><g  event="link:options"><circle r="11" transform="translate(25)"></circle><path fill="white" transform="scale(.55) translate(29, -16)" d="M31.229,17.736c0.064-0.571,0.104-1.148,0.104-1.736s-0.04-1.166-0.104-1.737l-4.377-1.557c-0.218-0.716-0.504-1.401-0.851-2.05l1.993-4.192c-0.725-0.91-1.549-1.734-2.458-2.459l-4.193,1.994c-0.647-0.347-1.334-0.632-2.049-0.849l-1.558-4.378C17.165,0.708,16.588,0.667,16,0.667s-1.166,0.041-1.737,0.105L12.707,5.15c-0.716,0.217-1.401,0.502-2.05,0.849L6.464,4.005C5.554,4.73,4.73,5.554,4.005,6.464l1.994,4.192c-0.347,0.648-0.632,1.334-0.849,2.05l-4.378,1.557C0.708,14.834,0.667,15.412,0.667,16s0.041,1.165,0.105,1.736l4.378,1.558c0.217,0.715,0.502,1.401,0.849,2.049l-1.994,4.193c0.725,0.909,1.549,1.733,2.459,2.458l4.192-1.993c0.648,0.347,1.334,0.633,2.05,0.851l1.557,4.377c0.571,0.064,1.148,0.104,1.737,0.104c0.588,0,1.165-0.04,1.736-0.104l1.558-4.377c0.715-0.218,1.399-0.504,2.049-0.851l4.193,1.993c0.909-0.725,1.733-1.549,2.458-2.458l-1.993-4.193c0.347-0.647,0.633-1.334,0.851-2.049L31.229,17.736zM16,20.871c-2.69,0-4.872-2.182-4.872-4.871c0-2.69,2.182-4.872,4.872-4.872c2.689,0,4.871,2.182,4.871,4.872C20.871,18.689,18.689,20.871,16,20.871z"></path><title>Link options.</title></g></g></g></g><!--z-index:59--><g   id="j_28" ><path  stroke="#444444" d="M 665 1681 L 811 1779 C 816.3333333333333 1783 822.3333333333333 1785.6666666666665 829 1787 L 2469 2089" id="v-374" stroke-width="2" stroke-dasharray="30 30" fill="none" style="opacity: 1;"></path><path  fill="black" stroke="black" d="M 0 0 0 0" transform="matrix(0.8279517503693529,0.5607993393900574,-0.5607993393900574,0.8279517503693529,665.4566650390625,1681)"></path><path  fill="#444444" stroke="#444444" d="M 20 0 L 0 10 L 20 20 z" id="v-376" transform="matrix(-0.9833965660783688,-0.18146953966237012,0.18146953966237012,-0.9833965660783688,2467.18528588916,2099.3139442605325)" style="opacity: 1;"></path><path  d="M 665 1681 L 811 1779 C 816.3333333333333 1783 822.3333333333333 1785.6666666666665 829 1787 L 2469 2089" id="v-375" fill="none" style="cursor: auto; pointer-events: visiblepainted;"></path><g ><g id="v-368"  label-idx="0" cursor="move" transform="matrix(1,0,0,1,1552.7662353515625,1920.2789306640625)" style="cursor: default; opacity: 1;"><rect joint-selector="rect" id="v-371" fill="#ffffff" rx="3" ry="3" pointer-events="none" width="170.15625" height="90.296875" transform="matrix(1,0,0,1,-85.1,-45.2)"></rect><text joint-selector="text" id="v-370" font-size="24px" xml:space="preserve" y="0.8em" fill="#444444" text-anchor="middle" pointer-events="none" font-family="Open Sans" font-weight="normal" transform="matrix(1,0,0,1,0,-38.7)"><tspan dy="0" >Stores and</tspan><tspan dy="1.2em" x="0" >retrieves driver</tspan><tspan dy="1.2em" x="0" >profiles</tspan></text></g><g id="v-369"  label-idx="1" cursor="move" transform="matrix(1,0,0,1,1542.7662353515625,1961.078857421875)" style="cursor: default; opacity: 1;"><rect joint-selector="rect" id="v-373" fill="#ffffff" rx="3" ry="3"  width="0" height="0" transform="matrix(1,0,0,1,0,0)" display="none"></rect><text joint-selector="text" id="v-372" fill="#000000" font-size="14" text-anchor="middle" pointer-events="none"></text></g></g><g  display="none" style="display: none;"><g  transform="translate(819, 1785)" id="v-417"><circle  idx="0" r="10"></circle><path  idx="0" d="M16,5.333c-7.732,0-14,4.701-14,10.5c0,1.982,0.741,3.833,2.016,5.414L2,25.667l5.613-1.441c2.339,1.317,5.237,2.107,8.387,2.107c7.732,0,14-4.701,14-10.5C30,10.034,23.732,5.333,16,5.333z" transform="translate(5, -33)"></path><path  idx="0" transform="scale(.8) translate(9.5, -37)" d="M24.778,21.419 19.276,15.917 24.777,10.415 21.949,7.585 16.447,13.087 10.945,7.585 8.117,10.415 13.618,15.917 8.116,21.419 10.946,24.248 16.447,18.746 21.948,24.248z"><title>Remove vertex.</title></path></g></g><g  id="v-378" display="none"><g  id="v-366"><path  end="source" d="M 26 0 L 0 13 L 26 26 z"></path></g><g  id="v-367"><path  end="target" d="M 26 0 L 0 13 L 26 26 z"></path></g></g><g  id="v-377" display="none"><g  id="v-364" transform="translate(698.211852807127, 1703.2928875006742) "><g  event="remove"><circle r="11"></circle><path transform="scale(.8) translate(-16, -16)" d="M24.778,21.419 19.276,15.917 24.777,10.415 21.949,7.585 16.447,13.087 10.945,7.585 8.117,10.415 13.618,15.917 8.116,21.419 10.946,24.248 16.447,18.746 21.948,24.248z"></path><title>Remove link.</title></g><g  event="link:options"><circle r="11" transform="translate(25)"></circle><path fill="white" transform="scale(.55) translate(29, -16)" d="M31.229,17.736c0.064-0.571,0.104-1.148,0.104-1.736s-0.04-1.166-0.104-1.737l-4.377-1.557c-0.218-0.716-0.504-1.401-0.851-2.05l1.993-4.192c-0.725-0.91-1.549-1.734-2.458-2.459l-4.193,1.994c-0.647-0.347-1.334-0.632-2.049-0.849l-1.558-4.378C17.165,0.708,16.588,0.667,16,0.667s-1.166,0.041-1.737,0.105L12.707,5.15c-0.716,0.217-1.401,0.502-2.05,0.849L6.464,4.005C5.554,4.73,4.73,5.554,4.005,6.464l1.994,4.192c-0.347,0.648-0.632,1.334-0.849,2.05l-4.378,1.557C0.708,14.834,0.667,15.412,0.667,16s0.041,1.165,0.105,1.736l4.378,1.558c0.217,0.715,0.502,1.401,0.849,2.049l-1.994,4.193c0.725,0.909,1.549,1.733,2.459,2.458l4.192-1.993c0.648,0.347,1.334,0.633,2.05,0.851l1.557,4.377c0.571,0.064,1.148,0.104,1.737,0.104c0.588,0,1.165-0.04,1.736-0.104l1.558-4.377c0.715-0.218,1.399-0.504,2.049-0.851l4.193,1.993c0.909-0.725,1.733-1.549,2.458-2.458l-1.993-4.193c0.347-0.647,0.633-1.334,0.851-2.049L31.229,17.736zM16,20.871c-2.69,0-4.872-2.182-4.872-4.871c0-2.69,2.182-4.872,4.872-4.872c2.689,0,4.871,2.182,4.871,4.872C20.871,18.689,18.689,20.871,16,20.871z"></path><title>Link options.</title></g></g></g></g><!--z-index:60--><g   id="j_29" ><path  stroke="#444444" d="M 2694 1681 L 2694 1981" id="v-391" stroke-width="2" stroke-dasharray="30 30" fill="none" style="opacity: 1;"></path><path  fill="black" stroke="black" d="M 0 0 0 0" transform="matrix(6.123233995736766e-17,1,-1,6.123233995736766e-17,2694,1681)"></path><path  fill="#444444" stroke="#444444" d="M 20 0 L 0 10 L 20 20 z" id="v-393" transform="matrix(-1.8369701987210297e-16,-1,1,-1.8369701987210297e-16,2684,1981)" style="opacity: 1;"></path><path  d="M 2694 1681 L 2694 1981" id="v-392" fill="none" style="cursor: auto; pointer-events: visiblepainted;"></path><g ><g id="v-385"  label-idx="0" cursor="move" transform="matrix(1,0,0,1,2694,1831)" style="cursor: default; opacity: 1;"><rect joint-selector="rect" id="v-388" fill="#ffffff" rx="3" ry="3" pointer-events="none" width="125.4375" height="90.296875" transform="matrix(1,0,0,1,-62.7,-45.2)"></rect><text joint-selector="text" id="v-387" font-size="24px" xml:space="preserve" y="0.8em" fill="#444444" text-anchor="middle" pointer-events="none" font-family="Open Sans" font-weight="normal" transform="matrix(1,0,0,1,0,-38.7)"><tspan dy="0" >Stores and</tspan><tspan dy="1.2em" x="0" >retrieves</tspan><tspan dy="1.2em" x="0" >predictions</tspan></text></g><g id="v-386"  label-idx="1" cursor="move" transform="matrix(1,0,0,1,2684,1871.800048828125)" style="cursor: default; opacity: 1;"><rect joint-selector="rect" id="v-390" fill="#ffffff" rx="3" ry="3"  width="0" height="0" transform="matrix(1,0,0,1,0,0)" display="none"></rect><text joint-selector="text" id="v-389" fill="#000000" font-size="14" text-anchor="middle" pointer-events="none"></text></g></g><g  display="none" style="display: none;"></g><g  id="v-395" display="none"><g  id="v-383"><path  end="source" d="M 26 0 L 0 13 L 26 26 z"></path></g><g  id="v-384"><path  end="target" d="M 26 0 L 0 13 L 26 26 z"></path></g></g><g  id="v-394" display="none"><g  id="v-382" transform="translate(2694, 1721) "><g  event="remove"><circle r="11"></circle><path transform="scale(.8) translate(-16, -16)" d="M24.778,21.419 19.276,15.917 24.777,10.415 21.949,7.585 16.447,13.087 10.945,7.585 8.117,10.415 13.618,15.917 8.116,21.419 10.946,24.248 16.447,18.746 21.948,24.248z"></path><title>Remove link.</title></g><g  event="link:options"><circle r="11" transform="translate(25)"></circle><path fill="white" transform="scale(.55) translate(29, -16)" d="M31.229,17.736c0.064-0.571,0.104-1.148,0.104-1.736s-0.04-1.166-0.104-1.737l-4.377-1.557c-0.218-0.716-0.504-1.401-0.851-2.05l1.993-4.192c-0.725-0.91-1.549-1.734-2.458-2.459l-4.193,1.994c-0.647-0.347-1.334-0.632-2.049-0.849l-1.558-4.378C17.165,0.708,16.588,0.667,16,0.667s-1.166,0.041-1.737,0.105L12.707,5.15c-0.716,0.217-1.401,0.502-2.05,0.849L6.464,4.005C5.554,4.73,4.73,5.554,4.005,6.464l1.994,4.192c-0.347,0.648-0.632,1.334-0.849,2.05l-4.378,1.557C0.708,14.834,0.667,15.412,0.667,16s0.041,1.165,0.105,1.736l4.378,1.558c0.217,0.715,0.502,1.401,0.849,2.049l-1.994,4.193c0.725,0.909,1.549,1.733,2.459,2.458l4.192-1.993c0.648,0.347,1.334,0.633,2.05,0.851l1.557,4.377c0.571,0.064,1.148,0.104,1.737,0.104c0.588,0,1.165-0.04,1.736-0.104l1.558-4.377c0.715-0.218,1.399-0.504,2.049-0.851l4.193,1.993c0.909-0.725,1.733-1.549,2.458-2.458l-1.993-4.193c0.347-0.647,0.633-1.334,0.851-2.049L31.229,17.736zM16,20.871c-2.69,0-4.872-2.182-4.872-4.871c0-2.69,2.182-4.872,4.872-4.872c2.689,0,4.871,2.182,4.871,4.872C20.871,18.689,18.689,20.871,16,20.871z"></path><title>Link options.</title></g></g></g></g><!--z-index:61--><g   id="j_30" ><path  stroke="#444444" d="M 3257 1681 L 2882 1981" id="v-408" stroke-width="2" stroke-dasharray="30 30" fill="none" style="opacity: 1;"></path><path  fill="black" stroke="black" d="M 0 0 0 0" transform="matrix(-0.7808688416748546,0.6246950072646418,-0.6246950072646418,-0.7808688416748546,3256.5,1681)"></path><path  fill="#444444" stroke="#444444" d="M 20 0 L 0 10 L 20 20 z" id="v-410" transform="matrix(0.7808686753084834,-0.6246952152225711,0.6246952152225711,0.7808686753084834,2875.2529548446896,1973.1913171569533)" style="opacity: 1;"></path><path  d="M 3257 1681 L 2882 1981" id="v-409" fill="none" style="cursor: auto; pointer-events: visiblepainted;"></path><g ><g id="v-402"  label-idx="0" cursor="move" transform="matrix(1,0,0,1,3069.5,1831)" style="cursor: default; opacity: 1;"><rect joint-selector="rect" id="v-405" fill="#ffffff" rx="3" ry="3" pointer-events="none" width="198" height="90.296875" transform="matrix(1,0,0,1,-99,-45.2)"></rect><text joint-selector="text" id="v-404" font-size="24px" xml:space="preserve" y="0.8em" fill="#444444" text-anchor="middle" pointer-events="none" font-family="Open Sans" font-weight="normal" transform="matrix(1,0,0,1,0,-38.7)"><tspan dy="0" >Stores and</tspan><tspan dy="1.2em" x="0" >retrieves recomm</tspan><tspan dy="1.2em" x="0" >endations</tspan></text></g><g id="v-403"  label-idx="1" cursor="move" transform="matrix(1,0,0,1,3059.5,1871.800048828125)" style="cursor: default; opacity: 1;"><rect joint-selector="rect" id="v-407" fill="#ffffff" rx="3" ry="3"  width="0" height="0" transform="matrix(1,0,0,1,0,0)" display="none"></rect><text joint-selector="text" id="v-406" fill="#000000" font-size="14" text-anchor="middle" pointer-events="none"></text></g></g><g  display="none" style="display: none;"></g><g  id="v-412" display="none"><g  id="v-400"><path  end="source" d="M 26 0 L 0 13 L 26 26 z"></path></g><g  id="v-401"><path  end="target" d="M 26 0 L 0 13 L 26 26 z"></path></g></g><g  id="v-411" display="none"><g  id="v-399" transform="translate(3225.765247622279, 1705.987801902177) "><g  event="remove"><circle r="11"></circle><path transform="scale(.8) translate(-16, -16)" d="M24.778,21.419 19.276,15.917 24.777,10.415 21.949,7.585 16.447,13.087 10.945,7.585 8.117,10.415 13.618,15.917 8.116,21.419 10.946,24.248 16.447,18.746 21.948,24.248z"></path><title>Remove link.</title></g><g  event="link:options"><circle r="11" transform="translate(25)"></circle><path fill="white" transform="scale(.55) translate(29, -16)" d="M31.229,17.736c0.064-0.571,0.104-1.148,0.104-1.736s-0.04-1.166-0.104-1.737l-4.377-1.557c-0.218-0.716-0.504-1.401-0.851-2.05l1.993-4.192c-0.725-0.91-1.549-1.734-2.458-2.459l-4.193,1.994c-0.647-0.347-1.334-0.632-2.049-0.849l-1.558-4.378C17.165,0.708,16.588,0.667,16,0.667s-1.166,0.041-1.737,0.105L12.707,5.15c-0.716,0.217-1.401,0.502-2.05,0.849L6.464,4.005C5.554,4.73,4.73,5.554,4.005,6.464l1.994,4.192c-0.347,0.648-0.632,1.334-0.849,2.05l-4.378,1.557C0.708,14.834,0.667,15.412,0.667,16s0.041,1.165,0.105,1.736l4.378,1.558c0.217,0.715,0.502,1.401,0.849,2.049l-1.994,4.193c0.725,0.909,1.549,1.733,2.459,2.458l4.192-1.993c0.648,0.347,1.334,0.633,2.05,0.851l1.557,4.377c0.571,0.064,1.148,0.104,1.737,0.104c0.588,0,1.165-0.04,1.736-0.104l1.558-4.377c0.715-0.218,1.399-0.504,2.049-0.851l4.193,1.993c0.909-0.725,1.733-1.549,2.458-2.458l-1.993-4.193c0.347-0.647,0.633-1.334,0.851-2.049L31.229,17.736zM16,20.871c-2.69,0-4.872-2.182-4.872-4.871c0-2.69,2.182-4.872,4.872-4.872c2.689,0,4.871,2.182,4.871,4.872C20.871,18.689,18.689,20.871,16,20.871z"></path><title>Link options.</title></g></g></g></g><!--z-index:62--></g><g ></g><g ></g><g ></g></g></svg>